# Blender v2.91.2 OBJ File: ''
# www.blender.org
mtllib platform5.mtl
o Cylinder
v -0.046584 -0.082579 -1.000000
v -0.046584 -0.082579 1.000000
v -0.046584 0.082579 -1.000000
v -0.046584 0.082579 1.000000
v 0.053416 -0.082579 -1.000000
v 0.053416 -0.082579 1.000000
v 0.053416 0.082579 -1.000000
v 0.053416 0.082579 1.000000
vt 0.763158 1.000000
vt 0.736842 0.000000
vt 0.763158 0.000000
vt 0.736842 0.000000
vt 0.763158 1.000000
vt 0.763158 0.000000
vt 0.736842 1.000000
vt 0.736842 1.000000
vn -1.0000 0.0000 0.0000
vn 1.0000 0.0000 0.0000
vn 0.0000 -1.0000 0.0000
vn 0.0000 0.0000 -1.0000
vn 0.0000 0.0000 1.0000
vn 0.0000 1.0000 0.0000
usemtl Platform
s off
f 2/1/1 3/2/1 1/3/1
f 7/4/2 6/5/2 5/6/2
f 1/3/3 6/5/3 2/1/3
f 3/2/4 5/6/4 1/3/4
f 2/1/5 8/7/5 4/8/5
f 4/8/6 7/4/6 3/2/6
f 2/1/1 4/8/1 3/2/1
f 7/4/2 8/7/2 6/5/2
f 1/3/3 5/6/3 6/5/3
f 3/2/4 7/4/4 5/6/4
f 2/1/5 6/5/5 8/7/5
f 4/8/6 8/7/6 7/4/6
